<?xml version="1.0" standalone="no"?>
<!DOCTYPE svg PUBLIC "-//W3C//DTD SVG 20010904//EN"
 "http://www.w3.org/TR/2001/REC-SVG-20010904/DTD/svg10.dtd">
<svg version="1.0" xmlns="http://www.w3.org/2000/svg"
 width="476.000000pt" height="472.000000pt" viewBox="0 0 476.000000 472.000000"
 preserveAspectRatio="xMidYMid meet">

<g transform="translate(0.000000,472.000000) scale(0.100000,-0.100000)"
fill="#000000" stroke="none">
<path d="M2110 4484 c-420 -59 -753 -197 -1050 -434 -47 -38 -103 -87 -125
-109 l-39 -41 1429 -2 c1526 -1 1455 -1 1500 1 l30 2 -45 41 c-311 283 -669
456 -1105 534 -129 23 -459 28 -595 8z"/>
<path d="M644 3618 c-66 -83 -120 -170 -188 -306 -137 -274 -203 -537 -213
-857 -16 -498 120 -927 421 -1330 69 -93 284 -311 371 -377 280 -211 556 -342
866 -412 186 -42 263 -50 469 -50 213 0 319 13 528 64 363 89 694 275 960 539
106 105 237 258 279 324 14 23 41 65 58 92 52 81 195 370 195 394 0 5 16 58
35 117 41 124 50 165 70 318 67 499 -93 1095 -397 1482 l-53 68 -3 -993 c-1
-655 -5 -990 -12 -986 -6 3 -10 17 -10 31 0 14 -4 23 -9 19 -6 -3 -12 19 -14
52 -2 43 -4 35 -5 -33 -1 -50 -9 -113 -17 -140 -16 -53 -64 -108 -125 -140
-34 -18 -90 -19 -1480 -19 -1627 0 -1471 -8 -1548 80 -22 25 -44 45 -50 45 -5
0 -8 10 -5 23 3 16 2 18 -5 8 -5 -7 -12 -9 -14 -5 -3 5 -3 3 -1 -4 1 -8 -3
-20 -11 -27 -11 -12 -14 -7 -20 32 -3 25 -6 497 -6 1049 0 552 -4 1004 -8
1004 -5 0 -31 -28 -58 -62z m3393 -1965 c-3 -10 -5 -4 -5 12 0 17 2 24 5 18 2
-7 2 -21 0 -30z m-1295 -455 l3 -63 228 -3 227 -2 0 -95 0 -95 -824 -2 -824
-3 -7 67 c-4 37 -4 80 0 97 l7 31 229 0 229 0 0 65 0 65 365 0 364 0 3 -62z"/>
<path d="M978 3483 c-3 -87 -5 -474 -7 -859 -1 -638 0 -702 14 -708 9 -3 642
-6 1406 -6 l1389 0 0 473 c0 261 -3 650 -7 865 l-6 392 -1393 0 -1392 0 -4
-157z"/>
<path d="M4671 1914 c0 -11 3 -14 6 -6 3 7 2 16 -1 19 -3 4 -6 -2 -5 -13z"/>
<path d="M3992 1900 c0 -14 2 -19 5 -12 2 6 2 18 0 25 -3 6 -5 1 -5 -13z"/>
<path d="M4653 1730 c-12 -28 -19 -50 -17 -50 7 0 46 91 42 96 -2 2 -14 -19
-25 -46z"/>
<path d="M1552 1749 c-21 -8 -42 -44 -42 -75 0 -24 38 -54 68 -54 34 0 72 33
72 61 0 49 -52 85 -98 68z"/>
<path d="M1014 1742 c-13 -9 -34 -46 -34 -62 0 -20 49 -60 75 -60 55 0 87 77
47 113 -19 17 -68 22 -88 9z"/>
<path d="M1266 1728 c-51 -73 48 -151 103 -82 25 32 26 52 5 82 -21 31 -87 31
-108 0z"/>
<path d="M4627 1744 c-4 -4 -7 -14 -7 -23 0 -11 3 -12 11 -4 6 6 10 16 7 23
-2 6 -7 8 -11 4z"/>
<path d="M4621 1646 c-13 -32 -25 -35 -15 -3 15 49 -6 7 -40 -80 -198 -517
-624 -982 -1132 -1240 -558 -284 -1260 -323 -1872 -104 -325 116 -657 332
-902 587 -140 145 -316 384 -364 491 -10 23 -23 40 -29 36 -6 -3 -7 -1 -3 5 9
15 -18 55 -29 44 -5 -4 -5 -1 0 7 8 14 -32 111 -46 111 -5 0 -5 7 -2 17 5 12
3 14 -7 8 -9 -6 -11 -4 -5 5 4 7 3 15 -3 19 -9 5 -13 20 -22 76 -1 6 -5 1 -9
-10 -5 -11 -4 -31 1 -44 5 -15 4 -28 -3 -37 -10 -12 -6 -17 11 -16 3 0 7 -11
8 -24 1 -14 6 -34 12 -44 5 -10 10 -26 10 -36 0 -9 15 -42 34 -73 19 -31 38
-69 42 -85 4 -17 22 -49 40 -73 18 -24 42 -63 53 -88 10 -24 28 -48 39 -54 11
-6 22 -21 26 -33 3 -13 20 -38 38 -57 18 -19 43 -51 56 -70 14 -20 52 -64 85
-98 34 -35 67 -74 74 -87 7 -14 23 -28 35 -32 12 -3 56 -39 98 -79 41 -39 94
-84 117 -98 24 -15 50 -38 58 -51 9 -13 28 -27 43 -31 15 -3 34 -14 42 -25 8
-10 78 -50 155 -90 77 -40 151 -80 165 -90 14 -9 50 -23 80 -30 30 -7 71 -21
90 -31 19 -11 40 -19 46 -19 6 0 17 -6 23 -14 7 -8 42 -17 84 -21 40 -4 83
-13 97 -20 71 -36 156 -48 391 -54 323 -8 584 1 679 24 41 11 78 23 81 28 4 5
41 14 83 20 42 6 76 14 76 18 0 3 21 12 48 19 26 8 50 19 54 25 4 7 36 18 70
25 35 7 67 19 71 27 4 7 17 13 27 13 11 0 20 4 20 8 0 4 24 16 53 27 28 10 56
24 60 32 4 7 15 13 22 13 8 0 24 9 34 19 11 11 37 25 58 30 24 7 42 19 48 33
6 14 24 26 48 31 20 5 37 15 37 22 0 7 11 16 25 19 14 4 25 13 25 22 0 9 9 18
20 21 11 3 20 9 20 14 0 5 4 9 9 9 5 0 24 15 43 33 19 17 43 39 54 47 10 8 24
24 30 35 6 10 24 23 40 27 22 5 32 16 39 40 6 18 20 37 31 42 12 6 30 23 39
39 9 15 27 33 38 38 12 6 31 28 42 51 11 23 27 43 37 46 9 2 22 17 28 33 7 16
18 29 24 29 7 0 16 15 21 33 6 17 20 36 32 42 13 5 24 22 28 42 3 18 17 46 30
62 14 16 25 33 25 39 0 5 7 15 15 22 8 7 17 27 21 46 3 19 12 34 20 34 8 0 14
6 14 13 0 7 8 28 19 47 10 19 22 54 26 77 4 24 11 46 16 49 13 7 26 41 49 124
19 65 19 95 1 46z"/>
<path d="M121 1564 c0 -11 3 -14 6 -6 3 7 2 16 -1 19 -3 4 -6 -2 -5 -13z"/>
</g>
</svg>
